name rise34.3697peak60.0498fall86.3158.mot
datacolumns 19
datarows 39
range 0.000000 0.063340
endheader
time	ground_force1_vx	ground_force1_vy	ground_force1_vz	ground_force1_px	ground_force1_py	ground_force1_pz	ground_force2_vx	ground_force2_vy	ground_force2_vz	ground_force2_px	ground_force2_py	ground_force2_pz	ground_torque1_x	ground_torque1_y	ground_torque1_z	ground_torque2_x	ground_torque2_y	ground_torque2_z	
0.000000	26.093118	713.792805	39.247766	0.322181	0.000000	0.103586	0.000000	0.000000	0.000000	0.000000	0.000000	0.000000	0.000000	7.215810	0.000000	0.000000	0.000000	0.000000	
0.001662	25.864140	713.138863	39.253691	0.321885	0.000000	0.103490	0.000000	0.000000	0.000000	0.000000	0.000000	0.000000	0.000000	7.663550	0.000000	0.000000	0.000000	0.000000	
0.003334	25.637405	712.490308	39.259615	0.321573	0.000000	0.103392	0.000000	0.000000	0.000000	0.000000	0.000000	0.000000	0.000000	8.106368	0.000000	0.000000	0.000000	0.000000	
0.005004	25.412487	711.844827	39.265768	0.321244	0.000000	0.103294	0.000000	0.000000	0.000000	0.000000	0.000000	0.000000	0.000000	8.543547	0.000000	0.000000	0.000000	0.000000	
0.006670	25.188639	711.199291	39.272387	0.320897	0.000000	0.103196	0.000000	0.000000	0.000000	0.000000	0.000000	0.000000	0.000000	8.974922	0.000000	0.000000	0.000000	0.000000	
0.008333	24.964893	710.550115	39.279705	0.320533	0.000000	0.103096	0.000000	0.000000	0.000000	0.000000	0.000000	0.000000	0.000000	9.400739	0.000000	0.000000	0.000000	0.000000	
0.009998	24.740163	709.893618	39.287936	0.320150	0.000000	0.102997	0.000000	0.000000	0.000000	0.000000	0.000000	0.000000	0.000000	9.821514	0.000000	0.000000	0.000000	0.000000	
0.011671	24.513327	709.226320	39.297266	0.319748	0.000000	0.102897	0.000000	0.000000	0.000000	0.000000	0.000000	0.000000	0.000000	10.237900	0.000000	0.000000	0.000000	0.000000	
0.013343	24.283305	708.545200	39.307849	0.319327	0.000000	0.102798	0.000000	0.000000	0.000000	0.000000	0.000000	0.000000	0.000000	10.650562	0.000000	0.000000	0.000000	0.000000	
0.015002	24.049119	707.847875	39.319799	0.318885	0.000000	0.102698	0.000000	0.000000	0.000000	0.000000	0.000000	0.000000	0.000000	11.060084	0.000000	0.000000	0.000000	0.000000	
0.016668	23.809927	707.132711	39.333190	0.318423	0.000000	0.102600	0.000000	0.000000	0.000000	0.000000	0.000000	0.000000	0.000000	11.466898	0.000000	0.000000	0.000000	0.000000	
0.018337	23.565048	706.398870	39.348060	0.317940	0.000000	0.102502	0.000000	0.000000	0.000000	0.000000	0.000000	0.000000	0.000000	11.871237	0.000000	0.000000	0.000000	0.000000	
0.020003	23.313968	705.646298	39.364409	0.317435	0.000000	0.102406	0.000000	0.000000	0.000000	0.000000	0.000000	0.000000	0.000000	12.273115	0.000000	0.000000	0.000000	0.000000	
0.021668	23.056325	704.875664	39.382210	0.316908	0.000000	0.102310	0.000000	0.000000	0.000000	0.000000	0.000000	0.000000	0.000000	12.672329	0.000000	0.000000	0.000000	0.000000	
0.023336	22.791896	704.088268	39.401411	0.316359	0.000000	0.102216	0.000000	0.000000	0.000000	0.000000	0.000000	0.000000	0.000000	13.068479	0.000000	0.000000	0.000000	0.000000	
0.025002	22.520566	703.285924	39.421941	0.315787	0.000000	0.102124	0.000000	0.000000	0.000000	0.000000	0.000000	0.000000	0.000000	13.460996	0.000000	0.000000	0.000000	0.000000	
0.026669	22.242305	702.470838	39.443718	0.315191	0.000000	0.102034	0.000000	0.000000	0.000000	0.000000	0.000000	0.000000	0.000000	13.849188	0.000000	0.000000	0.000000	0.000000	
0.028348	21.957129	701.645482	39.466653	0.314572	0.000000	0.101945	0.000000	0.000000	0.000000	0.000000	0.000000	0.000000	0.000000	14.232279	0.000000	0.000000	0.000000	0.000000	
0.029999	21.665079	700.812482	39.490653	0.313928	0.000000	0.101860	0.000000	0.000000	0.000000	0.000000	0.000000	0.000000	0.000000	14.609454	0.000000	0.000000	0.000000	0.000000	
0.031668	21.366190	699.974521	39.515631	0.313261	0.000000	0.101776	0.000000	0.000000	0.000000	0.000000	0.000000	0.000000	0.000000	14.979900	0.000000	0.000000	0.000000	0.000000	
0.033337	21.060477	699.134263	39.541500	0.312569	0.000000	0.101696	0.000000	0.000000	0.000000	0.000000	0.000000	0.000000	0.000000	15.342840	0.000000	0.000000	0.000000	0.000000	
0.035003	20.747916	698.294291	39.568183	0.311852	0.000000	0.101618	0.000000	0.000000	0.000000	0.000000	0.000000	0.000000	0.000000	15.697560	0.000000	0.000000	0.000000	0.000000	
0.036669	20.428436	697.457080	39.595609	0.311110	0.000000	0.101544	0.000000	0.000000	0.000000	0.000000	0.000000	0.000000	0.000000	16.043432	0.000000	0.000000	0.000000	0.000000	
0.038333	20.101916	696.624973	39.623716	0.310342	0.000000	0.101473	0.000000	0.000000	0.000000	0.000000	0.000000	0.000000	0.000000	16.379923	0.000000	0.000000	0.000000	0.000000	
0.040015	19.768184	695.800182	39.652448	0.309550	0.000000	0.101405	0.000000	0.000000	0.000000	0.000000	0.000000	0.000000	0.000000	16.706602	0.000000	0.000000	0.000000	0.000000	
0.041663	19.427025	694.984805	39.681757	0.308732	0.000000	0.101341	0.000000	0.000000	0.000000	0.000000	0.000000	0.000000	0.000000	17.023139	0.000000	0.000000	0.000000	0.000000	
0.043335	19.078186	694.180842	39.711599	0.307889	0.000000	0.101281	0.000000	0.000000	0.000000	0.000000	0.000000	0.000000	0.000000	17.329301	0.000000	0.000000	0.000000	0.000000	
0.044998	18.721383	693.390222	39.741937	0.307021	0.000000	0.101224	0.000000	0.000000	0.000000	0.000000	0.000000	0.000000	0.000000	17.624942	0.000000	0.000000	0.000000	0.000000	
0.046675	18.356316	692.614832	39.772735	0.306128	0.000000	0.101172	0.000000	0.000000	0.000000	0.000000	0.000000	0.000000	0.000000	17.909994	0.000000	0.000000	0.000000	0.000000	
0.048330	17.982673	691.856541	39.803962	0.305210	0.000000	0.101124	0.000000	0.000000	0.000000	0.000000	0.000000	0.000000	0.000000	18.184453	0.000000	0.000000	0.000000	0.000000	
0.050004	17.600144	691.117229	39.835584	0.304268	0.000000	0.101080	0.000000	0.000000	0.000000	0.000000	0.000000	0.000000	0.000000	18.448373	0.000000	0.000000	0.000000	0.000000	
0.051663	17.208426	690.398798	39.867574	0.303301	0.000000	0.101040	0.000000	0.000000	0.000000	0.000000	0.000000	0.000000	0.000000	18.701847	0.000000	0.000000	0.000000	0.000000	
0.053336	16.807230	689.703190	39.899901	0.302310	0.000000	0.101005	0.000000	0.000000	0.000000	0.000000	0.000000	0.000000	0.000000	18.945005	0.000000	0.000000	0.000000	0.000000	
0.055000	16.396289	689.032394	39.932537	0.301295	0.000000	0.100974	0.000000	0.000000	0.000000	0.000000	0.000000	0.000000	0.000000	19.178006	0.000000	0.000000	0.000000	0.000000	
0.056668	15.975356	688.388447	39.965452	0.300258	0.000000	0.100947	0.000000	0.000000	0.000000	0.000000	0.000000	0.000000	0.000000	19.401028	0.000000	0.000000	0.000000	0.000000	
0.058333	15.544214	687.773427	39.998619	0.299198	0.000000	0.100925	0.000000	0.000000	0.000000	0.000000	0.000000	0.000000	0.000000	19.614271	0.000000	0.000000	0.000000	0.000000	
0.060000	15.102668	687.189454	40.032010	0.298116	0.000000	0.100908	0.000000	0.000000	0.000000	0.000000	0.000000	0.000000	0.000000	19.817950	0.000000	0.000000	0.000000	0.000000	
0.061670	14.650554	686.638671	40.065601	0.297013	0.000000	0.100894	0.000000	0.000000	0.000000	0.000000	0.000000	0.000000	0.000000	20.012295	0.000000	0.000000	0.000000	0.000000	
0.063340	14.187729	686.123240	40.099366	0.295890	0.000000	0.100886	0.000000	0.000000	0.000000	0.000000	0.000000	0.000000	0.000000	20.197555	0.000000	0.000000	0.000000	0.000000	
